%FSDAX24Y24*%
%MOIN*%
%SFA1B1*%

%IPPOS*%
%ADD25C,0.068000*%
%ADD26C,0.067100*%
%ADD27R,0.067100X0.067100*%
%ADD28R,0.051300X0.047400*%
%ADD29R,0.047400X0.051300*%
%ADD30R,0.067100X0.059200*%
%ADD31R,0.039500X0.039500*%
%ADD32R,0.059200X0.067100*%
%ADD33R,0.033600X0.051300*%
%LNde-151116-1*%
%LPD*%
G54D25*
X027550Y027244D03*
Y022944D03*
G54D26*
X031798Y025700D03*
X032798D03*
X033798D03*
X034798D03*
X035798D03*
X036798D03*
X037798D03*
G54D27*
X038798Y025700D03*
G54D28*
X036115Y023644D03*
X036785D03*
X022015Y024244D03*
X022685D03*
X036585Y026594D03*
X035915D03*
X035185D03*
X034515D03*
X047715Y024000D03*
X048385D03*
G54D29*
X023450Y025885D03*
Y025215D03*
X049050Y026035D03*
Y025365D03*
X030650Y025314D03*
Y025983D03*
X021300Y026278D03*
Y025609D03*
X033798Y027278D03*
Y026609D03*
X046950Y025365D03*
Y026035D03*
Y024065D03*
Y024735D03*
X020700Y024959D03*
Y025628D03*
X021300Y024259D03*
Y024928D03*
G54D30*
X028350Y025170D03*
Y025918D03*
G54D31*
X046814Y028921D03*
X047404D03*
X023192D03*
X023782D03*
X037956D03*
X037365D03*
X032641D03*
X033231D03*
X035003Y021834D03*
X035593D03*
G54D32*
X029924Y025894D03*
X029176D03*
G54D33*
X022076Y024878D03*
X022450D03*
X022824D03*
Y025822D03*
X022450D03*
X022076D03*
X047676Y025028D03*
X048050D03*
X048424D03*
Y025972D03*
X048050D03*
X047676D03*
M02*