%FSDAX24Y24*%
%MOIN*%
%SFA1B1*%

%IPPOS*%
%ADD35C,0.010000*%
%ADD36C,0.003900*%
%ADD37C,0.006000*%
%LNde-151116-1*%
%LPD*%
G54D35*
X051196Y020644D02*
X054250D01*
X051196Y037573D02*
X054250D01*
X054150Y020644D02*
Y027389D01*
Y030508D02*
Y037573D01*
Y020644D02*
X054350Y021244D01*
X053950D02*
X054150Y020644D01*
X053950Y036973D02*
X054150Y037573D01*
X054350Y036973*
X051046Y037723D02*
Y040944D01*
X019550Y037723D02*
Y040944D01*
X036698Y040844D02*
X051046D01*
X019550D02*
X033578D01*
X050446Y041044D02*
X051046Y040844D01*
X050446Y040644D02*
X051046Y040844D01*
X019550D02*
X020150Y040644D01*
X019550Y040844D02*
X020150Y041044D01*
G54D36*
X023060Y024996D02*
Y025704D01*
X021840Y024996D02*
Y025704D01*
Y024996D02*
X023060D01*
X021840Y025704D02*
X023060D01*
X048660Y025146D02*
Y025854D01*
X047440Y025146D02*
Y025854D01*
Y025146D02*
X048660D01*
X047440Y025854D02*
X048660D01*
G54D37*
X054610Y027849D02*
X054010D01*
X054310Y027549*
Y027949*
X054110Y028149D02*
X054010Y028248D01*
Y028448*
X054110Y028548*
X054210*
X054310Y028448*
Y028348*
Y028448*
X054410Y028548*
X054510*
X054610Y028448*
Y028248*
X054510Y028149*
X054710Y028848D02*
X054610Y028948D01*
X054510*
Y028848*
X054610*
Y028948*
X054710Y028848*
X054810Y028748*
X054110Y029348D02*
X054010Y029448D01*
Y029648*
X054110Y029748*
X054510*
X054610Y029648*
Y029448*
X054510Y029348*
X054110*
Y029948D02*
X054010Y030048D01*
Y030248*
X054110Y030348*
X054510*
X054610Y030248*
Y030048*
X054510Y029948*
X054110*
X033738Y040884D02*
X033838Y040984D01*
X034038*
X034138Y040884*
Y040784*
X034038Y040684*
X034138Y040584*
Y040484*
X034038Y040384*
X033838*
X033738Y040484*
Y040584*
X033838Y040684*
X033738Y040784*
Y040884*
X033838Y040684D02*
X034038D01*
X034338Y040884D02*
X034438Y040984D01*
X034638*
X034738Y040884*
Y040484*
X034638Y040384*
X034438*
X034338Y040484*
Y040884*
X035038Y040284D02*
X035138Y040384D01*
Y040484*
X035038*
Y040384*
X035138*
X035038Y040284*
X034938Y040184*
X035538Y040884D02*
X035638Y040984D01*
X035838*
X035938Y040884*
Y040484*
X035838Y040384*
X035638*
X035538Y040484*
Y040884*
X036138D02*
X036238Y040984D01*
X036438*
X036538Y040884*
Y040484*
X036438Y040384*
X036238*
X036138Y040484*
Y040884*
M02*