%FSDAX24Y24*%
%MOIN*%
%SFA1B1*%

%IPPOS*%
%ADD10C,0.060000*%
%ADD11C,0.059100*%
%ADD12R,0.059100X0.059100*%
%ADD13R,0.043300X0.039400*%
%ADD14R,0.039400X0.043300*%
%ADD15R,0.059100X0.051200*%
%ADD16R,0.031500X0.031500*%
%ADD17R,0.051200X0.059100*%
%ADD18R,0.025600X0.043300*%
%ADD19C,0.019700*%
%ADD20C,0.039400*%
%ADD21R,0.920000X0.720000*%
%ADD22R,0.900000X0.690000*%
%ADD35C,0.010000*%
%ADD40C,0.005000*%
%ADD41C,0.020000*%
%ADD42C,0.040000*%
%ADD43C,0.080000*%
%ADD44C,0.160000*%
%ADD45C,0.320000*%
%ADD46C,0.640000*%
%LNde-151116-1*%
%LPD*%
G54D40*
X050810Y020880D02*
X019787D01*
Y037336*
X050810*
Y020880*
G54D35*
X050760Y020930D02*
X019837D01*
Y037286*
X050760*
Y020930*
G54D41*
X050660Y021030D02*
X019937D01*
Y037186*
X050660*
Y021030*
G54D42*
X050460Y021230D02*
X020137D01*
Y036986*
X050460*
Y021230*
G54D43*
X050060Y021630D02*
X020537D01*
Y036586*
X050060*
Y021630*
G54D44*
X049260Y022430D02*
X021337D01*
Y035786*
X049260*
Y022430*
G54D45*
X047660Y024030D02*
X022937D01*
Y034186*
X047660*
Y024030*
G54D46*
X044460Y027230D02*
X026137D01*
Y030986*
X044460*
Y027230*
%LNde-151116-2*%
%LPC*%
G36*
X037750Y030102D02*
X032850D01*
X032783Y030093*
X032721Y030067*
X032667Y030026*
X032458Y029817*
X032417Y029763*
X032391Y029701*
X032382Y029634*
Y029236*
X032326*
Y028606*
X032382*
Y027641*
X032243Y027502*
X027929*
X027876Y027570*
X027781Y027643*
X027669Y027689*
X027550Y027705*
X027431Y027689*
X027319Y027643*
X027224Y027570*
X027150Y027474*
X027104Y027363*
X027089Y027244*
X027104Y027124*
X027150Y027013*
X027224Y026917*
X027319Y026844*
X027431Y026798*
X027550Y026782*
X027669Y026798*
X027781Y026844*
X027876Y026917*
X027929Y026986*
X029162*
X029181Y026939*
X028993Y026752*
X028952Y026699*
X028927Y026636*
X028918Y026570*
Y026346*
X028763*
Y026331*
X027897*
Y026176*
X026024*
X025957Y026167*
X025895Y026141*
X025842Y026100*
X024243Y024502*
X023059*
Y024598*
X023052*
Y024828*
X022824*
Y024878*
X022774*
Y025194*
X022735*
Y025252*
X022165*
Y025194*
X022126*
Y024878*
X022076*
Y024828*
X021848*
Y024561*
X021807Y024541*
X021699*
Y024294*
X022015*
Y024244*
X022065*
Y023947*
X022311*
Y023889*
X023059*
Y023986*
X024350*
X024417Y023994*
X024479Y024020*
X024533Y024061*
X026131Y025660*
X027897*
Y025504*
X027955*
Y025220*
X028745*
Y025398*
X028763Y025441*
X030337*
X030353Y025397*
Y025364*
X030947*
Y025609*
X031004*
Y026033*
X031157Y026186*
X031657*
X031667Y026136*
X031570Y026095*
X031475Y026023*
X031403Y025928*
X031357Y025818*
X031341Y025700*
X031357Y025582*
X031403Y025472*
X031475Y025377*
X031540Y025327*
Y024899*
X030843Y024202*
X027450*
X027383Y024193*
X027321Y024167*
X027267Y024126*
X025843Y022702*
X021577*
X020958Y023320*
Y023931*
X021003Y023943*
X021250*
Y024259*
X021300*
Y024309*
X021597*
Y024554*
X021654*
Y025235*
Y025351*
X021863*
X021929Y025360*
X021992Y025386*
X022045Y025427*
X022067Y025448*
X022361*
Y025506*
X022400*
Y025822*
Y026139*
X022361*
Y026196*
X021791*
Y025902*
X021756Y025867*
X021654*
Y026652*
X021558*
Y026787*
X021757Y026986*
X023050*
X023117Y026994*
X023179Y027020*
X023233Y027061*
X023965Y027793*
X024006Y027847*
X024032Y027909*
X024040Y027976*
Y028606*
X024097*
Y029236*
X022877*
Y028606*
X022934*
Y027992*
X022743Y027802*
X020850*
X020783Y027793*
X020721Y027767*
X020667Y027726*
X020027Y027086*
X019986Y027033*
X019961Y026971*
X019952Y026904*
Y023284*
X019961Y023217*
X019986Y023155*
X020027Y023101*
X021167Y021961*
X021221Y021920*
X021283Y021894*
X021350Y021886*
X026650*
X026717Y021894*
X026779Y021920*
X026833Y021961*
X027387Y022516*
X027431Y022498*
X027550Y022482*
X027669Y022498*
X027781Y022544*
X027876Y022617*
X027950Y022713*
X027996Y022824*
X028011Y022944*
X027996Y023063*
X027978Y023106*
X028157Y023286*
X031050*
X031117Y023294*
X031179Y023320*
X031233Y023361*
X031757Y023886*
X034543*
X034745Y023684*
Y022149*
X034688*
Y021519*
X035908*
Y022149*
X035851*
Y023289*
X037159*
Y023805*
X037205Y023824*
X037867Y023161*
X037921Y023120*
X037983Y023094*
X038050Y023086*
X048050*
X048117Y023094*
X048179Y023120*
X048233Y023161*
X048567Y023496*
X048608Y023549*
X048634Y023612*
X048638Y023646*
X048759*
Y024354*
X048596*
X048567Y024392*
X048349Y024609*
X048335Y024654*
Y024711*
X048374*
Y025028*
Y025344*
X048335*
Y025402*
X047765*
Y025344*
X047726*
Y025028*
Y024711*
X047765*
Y024654*
X047792*
Y024544*
X047801Y024477*
X047826Y024415*
X047867Y024361*
X047886Y024343*
X047867Y024297*
X047765*
Y024000*
Y023703*
X047974*
X047994Y023653*
X047943Y023602*
X045538*
X045519Y023648*
X046348Y024477*
X046596*
Y024361*
X046653*
Y024115*
X046950*
X047247*
Y024361*
X047304*
Y024991*
Y025714*
X047391*
Y025598*
X047961*
Y025656*
X048000*
Y025972*
Y026289*
X047961*
Y026346*
X047391*
Y026231*
X047304*
Y026409*
X046596*
Y025661*
Y024993*
X046241*
X046174Y024984*
X046112Y024958*
X046058Y024917*
X045143Y024002*
X038457*
X038056Y024403*
Y025327*
X038121Y025377*
X038194Y025472*
X038239Y025582*
X038255Y025700*
X038239Y025818*
X038194Y025928*
X038121Y026023*
X038026Y026095*
X037916Y026141*
X037798Y026157*
X037680Y026141*
X037570Y026095*
X037507Y026048*
X037487Y026074*
X037200Y026361*
X037195Y026376*
X037194Y026409*
X037199Y026428*
X037857Y027086*
X047250*
X047317Y027094*
X047379Y027120*
X047433Y027161*
X047587Y027316*
X047628Y027369*
X047654Y027431*
X047662Y027498*
Y028606*
X047719*
Y029236*
X046499*
Y028606*
X046556*
Y028002*
X038214*
Y028606*
X038270*
Y029236*
X038214*
Y029638*
X038205Y029705*
X038179Y029767*
X038138Y029821*
X037933Y030026*
X037879Y030067*
X037817Y030093*
X037750Y030102*
G37*
G36*
X039193Y026095D02*
X038848D01*
Y025750*
X039193*
Y026095*
G37*
G36*
X038748D02*
X038403D01*
Y025750*
X038748*
Y026095*
G37*
G36*
X050250Y036804D02*
X041250D01*
X041189Y036792*
X041136Y036757*
X041102Y036705*
X041089Y036644*
Y029744*
X041102Y029682*
X041136Y029630*
X041189Y029595*
X041250Y029583*
X048792*
Y026409*
X048696*
Y026346*
X048139*
Y026289*
X048100*
Y025972*
Y025656*
X048139*
Y025598*
X048709*
X048753Y025583*
Y025415*
X049050*
X049347*
Y025661*
X049404*
Y026409*
X049308*
Y029583*
X050250*
X050311Y029595*
X050364Y029630*
X050398Y029682*
X050411Y029744*
Y036644*
X050398Y036705*
X050364Y036757*
X050311Y036792*
X050250Y036804*
G37*
G36*
X039193Y025650D02*
X038848D01*
Y025305*
X039193*
Y025650*
G37*
G36*
X038748D02*
X038403D01*
Y025305*
X038748*
Y025650*
G37*
G36*
X029450Y037104D02*
X020250D01*
X020189Y037092*
X020136Y037057*
X020102Y037005*
X020089Y036944*
Y029744*
X020102Y029682*
X020136Y029630*
X020189Y029595*
X020250Y029583*
X025592*
Y028851*
X023267Y026526*
X023226Y026473*
X023201Y026411*
X023192Y026344*
Y026259*
X023096*
Y026196*
X022539*
Y026139*
X022500*
Y025822*
Y025506*
X022539*
Y025448*
X023109*
X023153Y025433*
Y025265*
X023450*
X023747*
Y025511*
X023804*
Y026259*
X023795*
X023776Y026305*
X026033Y028561*
X026074Y028615*
X026099Y028677*
X026108Y028744*
Y029583*
X029450*
X029511Y029595*
X029564Y029630*
X029598Y029682*
X029611Y029744*
Y036944*
X029598Y037005*
X029564Y037057*
X029511Y037092*
X029450Y037104*
G37*
G36*
X048652Y025344D02*
X048474D01*
Y025078*
X048652*
Y025344*
G37*
G36*
X047626D02*
X047448D01*
Y025078*
X047626*
Y025344*
G37*
G36*
X049347Y025315D02*
X049100D01*
Y025049*
X049347*
Y025315*
G37*
G36*
X049000D02*
X048753D01*
Y025049*
X049000*
Y025315*
G37*
G36*
X030947Y025264D02*
X030700D01*
Y024997*
X030947*
Y025264*
G37*
G36*
X030600D02*
X030353D01*
Y024997*
X030600*
Y025264*
G37*
G36*
X023052Y025194D02*
X022874D01*
Y024928*
X023052*
Y025194*
G37*
G36*
X022026D02*
X021848D01*
Y024928*
X022026*
Y025194*
G37*
G36*
X023747Y025165D02*
X023500D01*
Y024899*
X023747*
Y025165*
G37*
G36*
X023400D02*
X023153D01*
Y024899*
X023400*
Y025165*
G37*
G36*
X028745Y025120D02*
X028400D01*
Y024814*
X028745*
Y025120*
G37*
G36*
X028300D02*
X027955D01*
Y024814*
X028300*
Y025120*
G37*
G36*
X048652Y024978D02*
X048474D01*
Y024711*
X048652*
Y024978*
G37*
G36*
X047626D02*
X047448D01*
Y024711*
X047626*
Y024978*
G37*
G36*
X047665Y024297D02*
X047399D01*
Y024050*
X047665*
Y024297*
G37*
G36*
X021965Y024194D02*
X021699D01*
Y023947*
X021965*
Y024194*
G37*
G36*
X021597Y024209D02*
X021350D01*
Y023943*
X021597*
Y024209*
G37*
G36*
X047247Y024015D02*
X047000D01*
Y023749*
X047247*
Y024015*
G37*
G36*
X046900D02*
X046653D01*
Y023749*
X046900*
Y024015*
G37*
G36*
X047665Y023950D02*
X047399D01*
Y023703*
X047665*
Y023950*
G37*
%LNde-151116-3*%
%LPD*%
G54D10*
X027550Y027244D03*
Y022944D03*
G54D11*
X031798Y025700D03*
X032798D03*
X033798D03*
X034798D03*
X035798D03*
X036798D03*
X037798D03*
G54D12*
X038798Y025700D03*
G54D13*
X036115Y023644D03*
X036785D03*
X022015Y024244D03*
X022685D03*
X036585Y026594D03*
X035915D03*
X035185D03*
X034515D03*
X047715Y024000D03*
X048385D03*
G54D14*
X023450Y025885D03*
Y025215D03*
X049050Y026035D03*
Y025365D03*
X030650Y025314D03*
Y025983D03*
X021300Y026278D03*
Y025609D03*
X033798Y027278D03*
Y026609D03*
X046950Y025365D03*
Y026035D03*
Y024065D03*
Y024735D03*
X020700Y024959D03*
Y025628D03*
X021300Y024259D03*
Y024928D03*
G54D15*
X028350Y025170D03*
Y025918D03*
G54D16*
X046814Y028921D03*
X047404D03*
X023192D03*
X023782D03*
X037956D03*
X037365D03*
X032641D03*
X033231D03*
X035003Y021834D03*
X035593D03*
G54D17*
X029924Y025894D03*
X029176D03*
G54D18*
X022076Y024878D03*
X022450D03*
X022824D03*
Y025822D03*
X022450D03*
X022076D03*
X047676Y025028D03*
X048050D03*
X048424D03*
Y025972D03*
X048050D03*
X047676D03*
G54D19*
X037750Y029844D02*
X037956Y029638D01*
X032850Y029844D02*
X037750D01*
X032641Y029634D02*
X032850Y029844D01*
X023192Y027885D02*
Y028921D01*
X022850Y027544D02*
X023192Y027885D01*
X020850Y027544D02*
X022850D01*
X023782Y027976D02*
Y028921D01*
X023050Y027244D02*
X023782Y027976D01*
X021650Y027244D02*
X023050D01*
X046241Y024735D02*
X046950D01*
X045250Y023744D02*
X046241Y024735D01*
X038350Y023744D02*
X045250D01*
X037798Y024296D02*
X038350Y023744D01*
X037798Y024296D02*
Y025700D01*
X038050Y023344D02*
X048050D01*
X037304Y024089D02*
X038050Y023344D01*
X037304Y024089D02*
Y025892D01*
X032641Y027534D02*
Y028921D01*
X032350Y027244D02*
X032641Y027534D01*
X027647Y027244D02*
X032350D01*
X032850Y026844D02*
X033304Y026389D01*
X029450Y026844D02*
X032850D01*
X029176Y026570D02*
X029450Y026844D01*
X027550Y027341D02*
X027647Y027244D01*
X027550D02*
Y027341D01*
X028050Y023544D02*
X031050D01*
X026650Y022144D02*
X028050Y023544D01*
X021350Y022144D02*
X026650D01*
X032641Y028921D02*
Y029634D01*
X037956Y028921D02*
Y029638D01*
X035003Y021834D02*
Y023791D01*
X034650Y024144D02*
X035003Y023791D01*
X031650Y024144D02*
X034650D01*
X035593Y021834D02*
Y023487D01*
X021300Y026894D02*
X021650Y027244D01*
X029924Y025894D02*
X030013Y025983D01*
X031050Y023544D02*
X031650Y024144D01*
X030650Y025983D02*
Y026044D01*
X030013Y025983D02*
X030650D01*
Y026044D02*
X031050Y026444D01*
X032350D02*
X032798Y025996D01*
X031050Y026444D02*
X032350D01*
X032798Y024144D02*
Y025700D01*
Y025996*
X037956Y027744D02*
Y028921D01*
Y027744D02*
X046814D01*
Y028921*
X022450Y024626D02*
X022614Y024463D01*
X022685Y024244*
X022450Y024626D02*
Y024878D01*
X022685Y024244D02*
X024350D01*
X026024Y025918*
X028350*
X029152*
X029176Y025894D02*
Y026570D01*
X029152Y025918D02*
X029176Y025894D01*
X048385Y023678D02*
Y024000D01*
X048050Y024544D02*
Y025028D01*
Y023344D02*
X048385Y023678D01*
X048050Y024544D02*
X048385Y024209D01*
Y024000D02*
Y024209D01*
X036292Y025892D02*
X036594Y026194D01*
X037003D02*
X037304Y025892D01*
X036594Y026194D02*
X037003D01*
X027450Y023944D02*
X030950D01*
X025950Y022444D02*
X027450Y023944D01*
X030950D02*
X031798Y024792D01*
X021470Y022444D02*
X025950D01*
X031798Y024792D02*
Y025700D01*
X020700Y025628D02*
X020719Y025609D01*
X021300*
X021863*
X022076Y025822*
X020700Y023214D02*
Y024959D01*
Y023214D02*
X021470Y022444D01*
X020700Y024959D02*
X021269D01*
X021300Y024928*
X035798Y025700D02*
Y026476D01*
X035915Y026594*
X046950Y026035D02*
X047012Y025972D01*
X047676*
X046950Y024735D02*
Y025365D01*
X022824Y025822D02*
X023388D01*
X023450Y025885D02*
Y026344D01*
X023388Y025822D02*
X023450Y025885D01*
X025850Y028744D02*
Y029744D01*
X023450Y026344D02*
X025850Y028744D01*
X048424Y025972D02*
X048988D01*
X049050Y026035D02*
Y029744D01*
X036585Y026594D02*
X037000D01*
X037750Y027344*
X047250*
X047404Y027498*
Y028921*
X021300Y026278D02*
Y026894D01*
X035185Y026594D02*
Y027278D01*
X035550Y027644*
X036950*
X037365Y028059*
Y028921*
X033231Y028363D02*
X033798Y027796D01*
X033231Y028363D02*
Y028921D01*
X033798Y027278D02*
Y027796D01*
X036785Y023644D02*
Y025687D01*
X036798Y025700*
X034515Y026178D02*
Y026594D01*
Y026178D02*
X034798Y025896D01*
Y025700D02*
Y025896D01*
X033798Y025700D02*
Y026580D01*
X033785Y026594D02*
X033798Y026580D01*
X021300Y024259D02*
X022000D01*
X022076Y024335*
Y024878*
Y025270*
X022824Y024878D02*
Y025318D01*
X022076Y025270D02*
X022150Y025344D01*
X022950D02*
X023078Y025215D01*
X022150Y025344D02*
X022450D01*
X022950*
X022450D02*
Y025822D01*
X023078Y025215D02*
X023450D01*
X046950Y024065D02*
X047015Y024000D01*
X047676Y024039D02*
X047715Y024000D01*
X047015D02*
X047715D01*
X047676Y024039D02*
Y025028D01*
Y025470*
X048424Y025028D02*
Y025518D01*
X048550Y025544D02*
X048750Y025344D01*
X049028*
X047676Y025470D02*
X047750Y025544D01*
X048050*
Y025972*
Y025544D02*
X048450D01*
X049028Y025344D02*
X049050Y025365D01*
X048424Y025518D02*
X048450Y025544D01*
X047950Y026644D02*
X048050Y026544D01*
X048450Y025544D02*
X048550D01*
X048050Y025972D02*
Y026544D01*
X035593Y023487D02*
X035750Y023644D01*
X036115*
X036050Y025044D02*
X036292Y025285D01*
Y025892*
X033304Y025289D02*
Y026389D01*
Y025289D02*
X033550Y025044D01*
X036050*
X020210Y023284D02*
X021350Y022144D01*
X020210Y023284D02*
Y026904D01*
X020850Y027544*
G54D20*
X030506Y025170D02*
X030650Y025314D01*
X022015Y023678D02*
Y024244D01*
X022150Y023544D02*
X025450D01*
X022015Y023678D02*
X022150Y023544D01*
X025450D02*
X027076Y025170D01*
X028350D02*
X030506D01*
X027076D02*
X028350D01*
X038798Y025700D02*
X044706D01*
X045650Y026644*
X047950*
G54D21*
X024850Y033344D03*
G54D22*
X045750Y033194D03*
M02*